<svg xmlns="http://www.w3.org/2000/svg" viewBox="0 0 150.5 7.5"><defs><style>.a{fill:none;}</style></defs><title>skills-2-03</title><circle class="a" cx="3.75" cy="3.75" r="3.75"/><circle class="a" cx="19.64" cy="3.75" r="3.75"/><path class="a" d="M35.53,0a3.75,3.75,0,1,0,3.75,3.75A3.75,3.75,0,0,0,35.53,0Z"/><path class="a" d="M99.08,0a3.75,3.75,0,1,0,3.75,3.75A3.75,3.75,0,0,0,99.08,0Z"/><path class="a" d="M51.42,0a3.75,3.75,0,1,0,3.75,3.75A3.75,3.75,0,0,0,51.42,0Z"/><path class="a" d="M115,0a3.75,3.75,0,1,0,3.75,3.75A3.75,3.75,0,0,0,115,0Z"/><path class="a" d="M67.31,0a3.75,3.75,0,1,0,3.75,3.75A3.75,3.75,0,0,0,67.31,0Z"/><path class="a" d="M83.19,0a3.75,3.75,0,1,0,3.75,3.75A3.75,3.75,0,0,0,83.19,0Z"/></svg>